<?xml version="1.0" encoding="UTF-8" standalone="no"?>
<svg
   width="378.34201"
   height="237.976"
   viewBox="0 0 378.34201 237.976"
   version="1.1"
   xml:space="preserve"
   style="clip-rule:evenodd;fill-rule:evenodd;stroke-linejoin:round;stroke-miterlimit:2"
   id="svg31"
   sodipodi:docname="AMAlogo1.svg"
   inkscape:version="1.4 (e7c3feb1, 2024-10-09)"
   xmlns:inkscape="http://www.inkscape.org/namespaces/inkscape"
   xmlns:sodipodi="http://sodipodi.sourceforge.net/DTD/sodipodi-0.dtd"
   xmlns="http://www.w3.org/2000/svg"
   xmlns:svg="http://www.w3.org/2000/svg"><defs
   id="defs31">
        
        
        
        
        
        
        
        
        
        
        
        
        
        
        
        
        
        
        
        
        
        
        
        
        
        
        
        
        
        
        
        
    </defs><sodipodi:namedview
   id="namedview31"
   pagecolor="#ffffff"
   bordercolor="#666666"
   borderopacity="1.0"
   inkscape:showpageshadow="2"
   inkscape:pageopacity="0.0"
   inkscape:pagecheckerboard="0"
   inkscape:deskcolor="#d1d1d1"
   inkscape:zoom="0.61752708"
   inkscape:cx="-149.791"
   inkscape:cy="151.41036"
   inkscape:window-width="1472"
   inkscape:window-height="920"
   inkscape:window-x="0"
   inkscape:window-y="36"
   inkscape:window-maximized="0"
   inkscape:current-layer="svg31" />
    <path
   d="m 353.04,229.689 h 5.648 c 0.073,1.32 0.439,2.31 1.172,2.97 0.732,0.66 1.802,0.99 3.192,0.99 1.21,0 2.13,-0.184 2.79,-0.587 0.66,-0.403 0.99,-0.953 0.99,-1.687 0,-0.366 -0.08,-0.696 -0.22,-0.953 -0.19,-0.293 -0.41,-0.513 -0.66,-0.66 -0.44,-0.22 -1.47,-0.587 -3.16,-1.063 -1.65,-0.513 -3.078,-0.991 -4.215,-1.43 -1.649,-0.66 -2.933,-1.54 -3.776,-2.604 -0.844,-1.1 -1.283,-2.346 -1.283,-3.777 0,-2.199 0.806,-3.96 2.456,-5.243 1.65,-1.32 3.886,-1.943 6.748,-1.943 2.75,0 4.95,0.66 6.56,2.053 1.65,1.357 2.46,3.19 2.46,5.5 h -5.54 c -0.14,-1.063 -0.51,-1.833 -1.13,-2.346 -0.66,-0.514 -1.54,-0.771 -2.75,-0.771 -0.96,0 -1.73,0.184 -2.314,0.587 -0.587,0.367 -0.881,0.88 -0.881,1.504 0,0.989 1.395,1.979 4.215,2.859 0.52,0.184 0.92,0.294 1.18,0.404 l 0.25,0.073 c 2.9,0.954 4.73,1.687 5.47,2.273 0.73,0.624 1.32,1.321 1.68,2.164 0.41,0.807 0.59,1.724 0.59,2.713 0,2.311 -0.88,4.071 -2.64,5.354 -1.76,1.284 -4.22,1.907 -7.37,1.907 -3.008,0 -5.281,-0.66 -6.858,-2.054 -1.54,-1.356 -2.42,-3.446 -2.604,-6.233 z m -2.896,-0.403 c -0.404,2.75 -1.503,4.913 -3.264,6.417 -1.797,1.503 -4.07,2.273 -6.894,2.273 -3.373,0 -6.086,-1.101 -8.139,-3.3 -2.091,-2.2 -3.117,-5.06 -3.117,-8.654 0,-3.74 1.063,-6.71 3.153,-8.947 2.127,-2.2 4.914,-3.336 8.433,-3.336 2.788,0 5.097,0.769 6.858,2.236 1.76,1.467 2.786,3.447 3.007,6.014 h -5.501 c -0.293,-1.101 -0.807,-1.944 -1.576,-2.493 -0.734,-0.587 -1.724,-0.844 -2.971,-0.844 -1.65,0 -2.933,0.66 -3.887,1.943 -0.953,1.32 -1.467,3.08 -1.467,5.354 0,2.237 0.478,3.997 1.394,5.244 0.88,1.246 2.164,1.869 3.813,1.869 1.321,0 2.384,-0.329 3.191,-0.989 0.806,-0.624 1.283,-1.577 1.503,-2.787 z m -30.985,8.067 v -23.028 h 5.867 v 23.028 z m -15.254,0 v -18.371 h -6.563 v -4.657 h 19.067 v 4.657 h -6.6 v 18.371 z m -28.344,-23.028 h 5.794 v 14.374 c 0,1.577 0.293,2.714 0.917,3.374 0.586,0.696 1.576,1.026 2.969,1.026 1.357,0 2.347,-0.33 2.934,-1.026 0.587,-0.66 0.88,-1.797 0.88,-3.374 v -14.374 h 5.867 v 13.677 c 0,1.907 -0.184,3.447 -0.551,4.621 -0.366,1.136 -0.989,2.089 -1.87,2.896 -0.916,0.807 -1.943,1.431 -3.153,1.834 -1.21,0.439 -2.567,0.623 -4.071,0.623 -1.502,0 -2.859,-0.184 -4.069,-0.623 -1.21,-0.403 -2.273,-1.027 -3.19,-1.834 -0.844,-0.807 -1.504,-1.797 -1.87,-2.934 -0.404,-1.136 -0.587,-2.676 -0.587,-4.583 z m -16.134,0 h 6.454 l 8.14,23.028 h -6.344 l -1.393,-4.217 h -7.701 l -1.319,4.217 h -6.124 z m 0.55,14.044 h 5.06 l -2.566,-7.957 z m -31.095,8.984 v -23.028 h 6.381 l 4.363,7.553 c 0.696,1.247 1.357,2.457 2.017,3.667 0.624,1.21 1.21,2.384 1.797,3.594 -0.111,-1.761 -0.147,-3.374 -0.184,-4.914 -0.073,-1.503 -0.073,-2.859 -0.073,-3.996 v -5.904 h 5.683 v 23.028 h -6.343 l -4.547,-7.811 c -0.513,-0.917 -1.1,-1.943 -1.723,-3.08 -0.624,-1.136 -1.284,-2.346 -1.98,-3.667 0.11,1.467 0.183,2.897 0.256,4.18 0.037,1.284 0.074,2.421 0.074,3.41 v 6.968 z m -26.621,-11.515 c 0,-3.739 1.027,-6.673 3.081,-8.873 2.09,-2.164 4.876,-3.226 8.433,-3.226 3.557,0 6.38,1.062 8.47,3.262 2.09,2.164 3.117,5.134 3.117,8.837 0,3.741 -1.027,6.711 -3.117,8.874 -2.09,2.201 -4.913,3.264 -8.47,3.264 -3.557,0 -6.343,-1.063 -8.433,-3.264 -2.054,-2.163 -3.081,-5.096 -3.081,-8.874 z m 5.977,0 c 0,2.348 0.477,4.144 1.43,5.391 0.953,1.283 2.311,1.907 4.107,1.907 1.796,0 3.154,-0.624 4.144,-1.907 0.953,-1.247 1.43,-3.043 1.43,-5.391 0,-2.309 -0.477,-4.106 -1.43,-5.353 -0.99,-1.283 -2.348,-1.906 -4.144,-1.906 -1.796,0 -3.154,0.623 -4.107,1.87 -0.953,1.247 -1.43,3.043 -1.43,5.389 z m -28.528,11.515 v -23.028 h 11.001 c 2.897,0 5.06,0.513 6.453,1.54 1.358,1.063 2.054,2.676 2.054,4.877 0,1.283 -0.293,2.383 -0.88,3.3 -0.587,0.916 -1.504,1.687 -2.75,2.31 1.026,0.403 1.723,0.917 2.127,1.577 0.439,0.66 0.659,1.833 0.732,3.52 0.037,0.44 0.075,1.1 0.111,1.87 0.073,1.87 0.367,2.933 0.953,3.227 v 0.807 h -6.196 c -0.294,-0.807 -0.477,-1.943 -0.514,-3.337 -0.036,-1.431 -0.073,-2.31 -0.11,-2.677 -0.11,-0.917 -0.404,-1.577 -0.916,-1.98 -0.514,-0.403 -1.284,-0.623 -2.311,-0.623 h -3.887 v 8.617 z m 5.867,-13.164 h 4.364 c 1.173,0 2.053,-0.22 2.603,-0.66 0.55,-0.441 0.844,-1.137 0.844,-2.09 0,-0.844 -0.257,-1.467 -0.807,-1.907 -0.55,-0.404 -1.393,-0.587 -2.493,-0.587 h -4.511 z m -27.208,13.164 v -23.028 h 17.491 v 4.73 h -11.624 v 4.07 h 10.634 v 4.583 h -10.634 v 4.915 h 11.991 v 4.73 z m -16.83,-23.028 h 6.417 l 8.14,23.028 h -6.343 l -1.394,-4.217 h -7.7 l -1.32,4.217 h -6.087 z m 0.513,14.044 h 5.06 l -2.566,-7.957 z m -35.494,8.984 v -23.028 h 5.94 v 18.041 h 11.147 v 4.987 z m -21.525,0 v -23.028 h 17.528 v 4.73 H 90.937 v 4.07 h 10.597 v 4.583 H 90.937 v 4.915 h 11.991 v 4.73 z m -23.98,0 v -23.028 h 9.863 c 3.374,0 6.014,0.99 7.811,2.97 1.833,1.98 2.75,4.84 2.75,8.543 0,3.851 -0.953,6.747 -2.824,8.655 -1.87,1.906 -4.73,2.86 -8.506,2.86 z m 5.939,-4.841 h 3.191 c 1.834,0 3.19,-0.55 4.033,-1.613 0.844,-1.064 1.247,-2.75 1.247,-5.061 0,-2.273 -0.403,-3.96 -1.247,-5.023 -0.843,-1.1 -2.199,-1.613 -4.033,-1.613 h -3.191 z m -32.597,-6.674 c 0,-3.739 1.026,-6.673 3.117,-8.873 2.053,-2.164 4.877,-3.226 8.396,-3.226 3.557,0 6.381,1.062 8.471,3.262 2.09,2.164 3.153,5.134 3.153,8.837 0,3.741 -1.063,6.711 -3.153,8.874 -2.09,2.201 -4.914,3.264 -8.471,3.264 -3.519,0 -6.343,-1.063 -8.396,-3.264 -2.091,-2.163 -3.117,-5.096 -3.117,-8.874 z m 5.976,0 c 0,2.348 0.478,4.144 1.431,5.391 0.953,1.283 2.347,1.907 4.106,1.907 1.797,0 3.191,-0.624 4.144,-1.907 0.953,-1.247 1.431,-3.043 1.431,-5.391 0,-2.309 -0.478,-4.106 -1.431,-5.353 -0.953,-1.283 -2.347,-1.906 -4.144,-1.906 -1.759,0 -3.153,0.623 -4.106,1.87 -0.953,1.247 -1.431,3.043 -1.431,5.389 z M 5.83,237.353 v -23.028 h 8.104 l 3.044,11.184 c 0.293,1.027 0.512,1.98 0.733,2.897 0.22,0.953 0.403,1.833 0.587,2.75 0.183,-0.953 0.403,-1.944 0.659,-2.97 0.257,-1.027 0.551,-2.127 0.881,-3.301 l 2.859,-10.56 h 8.104 v 23.028 h -5.39 v -10.23 c 0,-0.698 0,-1.724 0.036,-3.007 0.037,-1.284 0.111,-2.787 0.184,-4.511 l -4.437,17.748 h -5.83 l -4.327,-17.748 c 0.073,2.054 0.111,3.887 0.147,5.537 0.073,1.613 0.073,2.897 0.073,3.814 v 8.397 z m 275.708,-38.429 v -23.027 h 16.5 v 4.804 h -10.634 v 4.766 h 9.241 v 4.767 h -9.241 v 8.69 z m -26.731,-11.476 c 0,-3.741 1.063,-6.711 3.117,-8.874 2.053,-2.163 4.876,-3.264 8.434,-3.264 3.556,0 6.379,1.101 8.469,3.264 2.054,2.2 3.117,5.133 3.117,8.874 0,3.739 -1.063,6.673 -3.117,8.873 -2.09,2.164 -4.913,3.263 -8.469,3.263 -3.558,0 -6.381,-1.099 -8.434,-3.263 -2.054,-2.163 -3.117,-5.134 -3.117,-8.873 z m 6.013,0 c 0,2.346 0.477,4.143 1.43,5.389 0.953,1.247 2.311,1.87 4.108,1.87 1.795,0 3.153,-0.623 4.106,-1.87 0.99,-1.246 1.467,-3.043 1.467,-5.389 0,-2.347 -0.477,-4.144 -1.467,-5.391 -0.953,-1.247 -2.311,-1.87 -4.106,-1.87 -1.797,0 -3.155,0.623 -4.108,1.87 -0.953,1.247 -1.43,3.044 -1.43,5.391 z m -30.214,11.476 v -8.653 l -7.957,-14.374 h 6.6 l 4.254,9.313 4.217,-9.313 h 6.673 l -8.067,14.374 v 8.653 z m -34.909,0 v -23.027 h 8.141 l 3.007,11.221 c 0.293,0.989 0.513,1.943 0.733,2.896 0.22,0.917 0.441,1.833 0.587,2.714 0.22,-0.954 0.44,-1.907 0.696,-2.934 0.22,-1.027 0.514,-2.127 0.844,-3.337 l 2.861,-10.56 h 8.103 v 23.027 h -5.391 v -10.193 c 0,-0.733 0.038,-1.724 0.074,-3.044 0.037,-1.283 0.073,-2.786 0.146,-4.474 l -4.436,17.711 h -5.83 l -4.328,-17.711 c 0.074,2.054 0.111,3.888 0.184,5.501 0.036,1.65 0.036,2.897 0.036,3.814 v 8.396 z m -21.34,0 v -23.027 h 17.454 v 4.73 h -11.55 v 4.07 h 10.559 v 4.621 h -10.559 v 4.913 h 11.917 v 4.693 z m -23.981,0 v -23.027 h 9.827 c 3.41,0 6.014,0.99 7.847,3.007 1.833,1.979 2.714,4.84 2.714,8.544 0,3.849 -0.917,6.71 -2.824,8.616 -1.871,1.907 -4.694,2.86 -8.507,2.86 z m 5.94,-4.803 h 3.19 c 1.834,0 3.154,-0.55 3.997,-1.614 0.844,-1.099 1.283,-2.75 1.283,-5.059 0,-2.311 -0.439,-3.997 -1.283,-5.061 -0.843,-1.063 -2.163,-1.613 -3.997,-1.613 h -3.19 z m -22.771,-18.224 h 6.454 l 8.104,23.027 h -6.307 l -1.431,-4.217 h -7.7 l -1.283,4.217 h -6.124 z m 0.551,14.044 h 5.023 l -2.567,-7.921 z m -10.011,0.917 c -0.367,2.786 -1.467,4.913 -3.264,6.416 -1.759,1.541 -4.07,2.31 -6.856,2.31 -3.374,0 -6.087,-1.099 -8.178,-3.299 -2.053,-2.201 -3.08,-5.098 -3.08,-8.691 0,-3.74 1.064,-6.711 3.153,-8.91 2.091,-2.237 4.915,-3.337 8.435,-3.337 2.786,0 5.06,0.734 6.856,2.2 1.76,1.467 2.75,3.484 3.007,6.013 h -5.537 c -0.257,-1.1 -0.769,-1.943 -1.54,-2.493 -0.733,-0.55 -1.76,-0.843 -2.97,-0.843 -1.65,0 -2.97,0.659 -3.923,1.98 -0.954,1.283 -1.43,3.08 -1.43,5.317 0,2.273 0.439,4.033 1.356,5.28 0.917,1.21 2.201,1.833 3.851,1.833 1.319,0 2.383,-0.293 3.153,-0.953 0.807,-0.66 1.32,-1.577 1.503,-2.823 z M 86.83,175.897 h 6.453 l 8.105,23.027 H 95.08 l -1.43,-4.217 h -7.7 l -1.283,4.217 h -6.124 z m 0.55,14.044 h 5.023 l -2.566,-7.921 z"
   style="fill:#0076bd;fill-rule:nonzero"
   id="path28" /><path
   d="M 60.429,65.82 C 41.252,65.6 22.551,63.143 12.174,53.426 13.751,74.18 33.588,79.57 60.65,79.57 h 77.295 c 15.328,0 29.079,1.577 39.015,10.157 C 171.533,72.383 155.766,67.396 137.505,65.82 Z m 8.433,22.551 h 73.154 c 17.234,1.026 33.147,2.016 40.811,20.276 -8.91,-7.076 -22.551,-7.076 -40.811,-7.076 H 69.192 c -25.447,0 -37.731,-8.25 -43.708,-21.304 11.038,8.104 26.475,8.104 43.378,8.104 z M 329.977,43.855 H 248.5 c -18.958,1.467 -33.478,4.951 -40.115,24.678 9.681,-10.157 23.871,-11.147 40.115,-11.147 h 81.477 c 28.197,0 47.335,-13.201 48.365,-31.901 -6.09,11.147 -29.885,18.37 -48.365,18.37 z M 317.692,65.93 c 19.178,-0.33 37.769,-2.787 48.59,-12.614 -1.58,20.534 -21.749,26.034 -48.92,26.034 h -76.856 c -15.693,0 -29.555,1.357 -39.565,10.047 5.5,-16.904 21.304,-22.331 39.565,-23.467 z m -8.653,22.441 c 17.234,0 32.781,0 44.038,-8.104 -5.83,13.054 -18.48,21.304 -44.038,21.304 h -73.153 c -17.82,0 -31.461,0 -40.482,7.076 7.334,-18.26 23.688,-19.25 40.922,-20.276 z M 176.96,37.659 189.317,112.278 201.821,37.659 Z M 191.114,0 c -5.353,10.158 -22.844,16.464 -12.907,35.275 h 13.604 C 184.733,26.622 194.378,12.871 191.114,0 Z m 2.934,9.828 c 1.686,8.543 -4.731,16.794 0.33,25.447 h 4.986 c 6.087,-7.187 2.457,-16.904 -5.316,-25.447 z m 71.466,112.533 -8.691,20.095 h 17.711 z m -35.165,39.126 25.925,-51.703 h 18.26 l 25.374,51.703 h -15.803 l -5.721,-10.157 h -27.171 l -4.95,10.157 z m -76.857,0 v -51.703 h 22.661 l 13.164,39.308 13.274,-39.308 h 21.781 v 51.703 h -14.777 v -41.252 l -13.091,41.252 H 181.36 l -12.87,-41.252 v 41.252 z m -40.554,-39.126 -8.691,20.095 h 17.821 z m -34.945,39.126 25.594,-51.703 h 18.481 l 25.448,51.703 H 131.639 L 126.102,151.33 H 98.82 l -4.839,10.157 z M 47.889,43.855 h 81.623 c 18.81,1.467 33.368,5.427 40.115,24.678 -9.681,-9.68 -24.018,-11.037 -40.115,-11.037 H 47.889 C 19.838,57.496 1.026,44.772 0,25.815 c 5.757,11.293 29.408,18.04 47.889,18.04 z"
   style="fill:#0076bd"
   id="path29" /><path
   d="m 294.885,114.624 h 1.833 c 0.367,0 0.66,-0.073 0.881,-0.146 0.219,-0.074 0.403,-0.184 0.512,-0.367 0.111,-0.183 0.184,-0.366 0.184,-0.587 0,-0.293 -0.11,-0.549 -0.33,-0.733 -0.22,-0.22 -0.587,-0.293 -1.064,-0.293 h -2.016 z m -0.88,3.557 v -6.417 h 2.86 c 0.586,0 1.027,0.074 1.32,0.184 0.294,0.11 0.513,0.33 0.697,0.623 0.184,0.293 0.293,0.587 0.293,0.953 0,0.44 -0.147,0.844 -0.44,1.137 -0.294,0.33 -0.77,0.513 -1.393,0.624 0.22,0.11 0.403,0.219 0.513,0.33 0.256,0.219 0.477,0.513 0.733,0.843 l 1.101,1.723 h -1.064 l -0.844,-1.32 c -0.256,-0.366 -0.476,-0.696 -0.623,-0.88 -0.183,-0.22 -0.293,-0.366 -0.44,-0.44 -0.11,-0.073 -0.256,-0.146 -0.403,-0.146 -0.074,-0.037 -0.22,-0.037 -0.44,-0.037 h -0.99 v 2.823 z"
   style="fill:#0076bd;fill-rule:nonzero"
   id="path30" /><path
   d="m 296.498,119.721 c 1.32,0 2.53,-0.55 3.41,-1.43 0.88,-0.843 1.394,-2.053 1.394,-3.373 0,-1.357 -0.514,-2.567 -1.394,-3.41 -0.88,-0.881 -2.09,-1.43 -3.41,-1.43 h -0.036 c -1.32,0 -2.53,0.549 -3.41,1.43 -0.844,0.843 -1.394,2.053 -1.394,3.41 0,1.32 0.514,2.53 1.394,3.373 0.88,0.88 2.09,1.43 3.446,1.43 z m 0,1.1 c -1.649,0 -3.153,-0.659 -4.217,-1.76 -1.099,-1.063 -1.759,-2.53 -1.759,-4.143 0,-1.65 0.66,-3.154 1.759,-4.217 1.064,-1.1 2.568,-1.76 4.181,-1.76 h 0.036 c 1.613,0 3.117,0.66 4.181,1.76 1.099,1.063 1.76,2.567 1.76,4.217 0,1.613 -0.661,3.08 -1.76,4.18 -1.064,1.064 -2.568,1.723 -4.181,1.723 z"
   style="fill:#0076bd;fill-rule:nonzero"
   id="path31" />
</svg>
