<?xml version="1.0" encoding="UTF-8" standalone="no"?>
<!DOCTYPE svg PUBLIC "-//W3C//DTD SVG 1.1//EN" "http://www.w3.org/Graphics/SVG/1.1/DTD/svg11.dtd">
<svg width="100%" height="100%" viewBox="0 0 1019 246" version="1.1" xmlns="http://www.w3.org/2000/svg" xmlns:xlink="http://www.w3.org/1999/xlink" xml:space="preserve" xmlns:serif="http://www.serif.com/" style="fill-rule:evenodd;clip-rule:evenodd;stroke-linejoin:round;stroke-miterlimit:2;">
    <g>
        <path d="M82.859,95.723C56.579,95.414 30.918,92.013 16.695,78.719C18.859,107.163 46.067,114.582 83.169,114.582L189.217,114.582C210.241,114.582 229.101,116.747 242.705,128.496C235.285,104.689 213.642,97.888 188.599,95.723L82.859,95.723ZM94.454,126.641L194.782,126.641C218.435,128.032 240.232,129.423 250.744,154.467C238.531,144.727 219.826,144.727 194.782,144.727L94.917,144.727C59.98,144.727 43.13,133.442 34.937,115.51C50.087,126.641 71.265,126.641 94.454,126.641ZM452.637,65.579L340.87,65.579C314.898,67.588 294.957,72.381 285.836,99.434C299.13,85.52 318.609,84.129 340.87,84.129L452.637,84.129C491.285,84.129 517.565,66.042 518.956,40.381C510.608,55.685 477.99,65.579 452.637,65.579ZM435.787,95.878C462.067,95.414 487.575,92.013 502.416,78.564C500.251,106.699 472.58,114.274 435.324,114.274L329.893,114.274C308.406,114.274 289.391,116.129 275.632,128.032C283.208,104.844 304.85,97.424 329.893,95.878L435.787,95.878ZM423.884,126.641C447.536,126.641 468.87,126.641 484.328,115.51C476.29,133.442 458.975,144.727 423.884,144.727L323.555,144.727C299.13,144.727 280.425,144.727 268.058,154.467C278.106,129.423 300.521,128.032 324.173,126.641L423.884,126.641ZM242.705,57.076L259.709,159.413L276.869,57.076L242.705,57.076ZM262.183,5.444C254.763,19.356 230.802,28.014 244.406,53.83L263.111,53.83C253.372,41.927 266.667,23.067 262.183,5.444ZM266.203,18.893C268.521,30.642 259.709,41.927 266.667,53.83L273.468,53.83C281.816,43.936 276.869,30.642 266.203,18.893ZM364.219,173.326L352.316,200.843L376.586,200.843L364.219,173.326ZM315.988,226.969L351.544,156.013L376.586,156.013L411.37,226.969L389.727,226.969L381.842,213.056L344.586,213.056L337.785,226.969L315.988,226.969ZM210.532,226.969L210.532,156.013L241.605,156.013L259.691,209.964L277.933,156.013L307.769,156.013L307.769,226.969L287.518,226.969L287.518,170.39L269.586,226.969L248.716,226.969L231.092,170.39L231.092,226.969L210.532,226.969ZM154.88,173.326L142.977,200.843L167.402,200.843L154.88,173.326ZM106.958,226.969L142.049,156.013L167.402,156.013L202.339,226.969L180.542,226.969L172.967,213.056L135.557,213.056L128.909,226.969L106.958,226.969ZM65.7,65.579L177.623,65.579C203.44,67.588 223.381,72.999 232.657,99.434C219.362,86.139 199.729,84.284 177.623,84.284L65.7,84.284C27.207,84.284 1.391,66.815 0,40.845C7.883,56.303 40.347,65.579 65.7,65.579Z" style="fill:rgb(0,118,189);"/>
        <path d="M404.128,160.81L406.909,160.81C407.499,160.81 407.962,160.749 408.295,160.626C408.629,160.503 408.882,160.307 409.055,160.038C409.229,159.769 409.315,159.478 409.315,159.162C409.315,158.7 409.149,158.319 408.812,158.021C408.477,157.724 407.947,157.575 407.221,157.575L404.128,157.575L404.128,160.81ZM402.835,166.27L402.835,156.494L407.169,156.494C408.041,156.494 408.703,156.583 409.156,156.758C409.609,156.934 409.97,157.243 410.244,157.686C410.515,158.133 410.649,158.625 410.649,159.162C410.649,159.856 410.426,160.439 409.975,160.915C409.527,161.391 408.833,161.693 407.895,161.823C408.239,161.986 408.498,162.148 408.675,162.31C409.053,162.656 409.411,163.091 409.75,163.609L411.451,166.27L409.823,166.27L408.53,164.235C408.152,163.65 407.84,163.2 407.594,162.891C407.351,162.578 407.132,162.36 406.939,162.237C406.746,162.112 406.549,162.025 406.349,161.976C406.202,161.946 405.962,161.93 405.628,161.93L404.128,161.93L404.128,166.27L402.835,166.27Z" style="fill:rgb(0,118,189);fill-rule:nonzero;"/>
        <path d="M406.573,168.606L406.579,168.606C408.599,168.605 410.434,167.781 411.764,166.451C413.095,165.12 413.921,163.283 413.921,161.262L413.921,161.256C413.92,159.235 413.095,157.4 411.766,156.07C410.435,154.739 408.598,153.913 406.577,153.913L406.571,153.913C404.55,153.914 402.714,154.739 401.384,156.068C400.054,157.399 399.228,159.236 399.228,161.258L399.228,161.264C399.228,163.284 400.053,165.119 401.383,166.449C402.714,167.78 404.55,168.606 406.573,168.606ZM406.579,170.314L406.573,170.314C404.08,170.313 401.816,169.297 400.176,167.657C398.538,166.018 397.521,163.756 397.52,161.264L397.52,161.258C397.521,158.765 398.538,156.501 400.177,154.861C401.816,153.223 404.079,152.207 406.571,152.205L406.577,152.205C409.07,152.206 411.334,153.223 412.973,154.863C414.612,156.502 415.628,158.765 415.628,161.256L415.628,161.262C415.628,163.755 414.612,166.019 412.971,167.658C411.333,169.297 409.071,170.313 406.579,170.314Z" style="fill:rgb(0,118,189);fill-rule:nonzero;"/>
        <path d="M69.73,240.412L68.181,235.379L66.642,240.412L69.73,240.412ZM70.636,243.44L65.707,243.44L65.029,245.752L60.608,245.752L65.87,231.75L70.587,231.75L75.852,245.752L71.324,245.752L70.636,243.44Z" style="fill:rgb(0,118,189);fill-rule:nonzero;"/>
        <path d="M86.206,240.031L89.997,241.178C89.743,242.241 89.342,243.128 88.794,243.842C88.246,244.556 87.565,245.094 86.754,245.455C85.942,245.82 84.908,246 83.656,246C82.134,246 80.889,245.778 79.927,245.338C78.962,244.894 78.128,244.115 77.426,243.001C76.729,241.886 76.377,240.461 76.377,238.724C76.377,236.405 76.993,234.622 78.225,233.381C79.458,232.135 81.202,231.513 83.454,231.513C85.218,231.513 86.603,231.867 87.614,232.582C88.625,233.296 89.375,234.391 89.863,235.867L86.043,236.719C85.909,236.292 85.769,235.978 85.622,235.779C85.381,235.45 85.084,235.196 84.735,235.017C84.383,234.837 83.992,234.749 83.559,234.749C82.581,234.749 81.828,235.144 81.306,235.933C80.911,236.519 80.713,237.439 80.713,238.694C80.713,240.249 80.95,241.311 81.42,241.889C81.893,242.466 82.555,242.753 83.405,242.753C84.234,242.753 84.859,242.521 85.283,242.055C85.707,241.592 86.013,240.917 86.206,240.031Z" style="fill:rgb(0,118,189);fill-rule:nonzero;"/>
        <path d="M99.806,240.412L98.258,235.379L96.719,240.412L99.806,240.412ZM100.713,243.44L95.784,243.44L95.106,245.752L90.685,245.752L95.947,231.75L100.664,231.75L105.929,245.752L101.401,245.752L100.713,243.44Z" style="fill:rgb(0,118,189);fill-rule:nonzero;"/>
        <path d="M111.696,234.922L111.696,242.57L112.756,242.57C113.662,242.57 114.304,242.473 114.686,242.27C115.067,242.071 115.367,241.72 115.585,241.221C115.8,240.722 115.908,239.91 115.908,238.789C115.908,237.306 115.667,236.292 115.184,235.744C114.699,235.196 113.897,234.922 112.775,234.922L111.696,234.922ZM107.37,231.75L113.799,231.75C115.064,231.75 116.087,231.923 116.87,232.266C117.649,232.61 118.295,233.103 118.803,233.745C119.312,234.391 119.68,235.138 119.911,235.991C120.139,236.846 120.253,237.749 120.253,238.704C120.253,240.2 120.084,241.36 119.742,242.185C119.403,243.011 118.93,243.701 118.323,244.256C117.721,244.813 117.072,245.185 116.378,245.37C115.429,245.625 114.568,245.752 113.799,245.752L107.37,245.752L107.37,231.75Z" style="fill:rgb(0,118,189);fill-rule:nonzero;"/>
        <path d="M122.52,231.75L134.111,231.75L134.111,234.739L126.855,234.739L126.855,236.966L133.587,236.966L133.587,239.822L126.855,239.822L126.855,242.58L134.324,242.58L134.324,245.752L122.52,245.752L122.52,231.75Z" style="fill:rgb(0,118,189);fill-rule:nonzero;"/>
        <path d="M136.606,231.75L142.298,231.75L144.495,240.269L146.682,231.75L152.355,231.75L152.355,245.752L148.821,245.752L148.821,235.075L146.079,245.752L142.881,245.752L140.149,235.075L140.149,245.752L136.606,245.752L136.606,231.75Z" style="fill:rgb(0,118,189);fill-rule:nonzero;"/>
        <path d="M153.701,231.75L158.506,231.75L161.333,236.477L164.159,231.75L168.935,231.75L163.491,239.888L163.491,245.752L159.155,245.752L159.155,239.888L153.701,231.75Z" style="fill:rgb(0,118,189);fill-rule:nonzero;"/>
        <path d="M180.635,238.778C180.635,240.193 180.896,241.207 181.42,241.827C181.946,242.443 182.663,242.753 183.566,242.753C184.495,242.753 185.215,242.449 185.724,241.847C186.232,241.24 186.49,240.154 186.49,238.59C186.49,237.269 186.223,236.308 185.691,235.698C185.16,235.092 184.44,234.789 183.527,234.789C182.656,234.789 181.956,235.095 181.427,235.715C180.899,236.331 180.635,237.354 180.635,238.778ZM176.306,238.759C176.306,236.474 176.945,234.694 178.216,233.423C179.491,232.147 181.264,231.513 183.537,231.513C185.867,231.513 187.664,232.139 188.925,233.39C190.184,234.639 190.816,236.393 190.816,238.645C190.816,240.281 190.539,241.625 189.988,242.671C189.437,243.718 188.642,244.533 187.602,245.116C186.559,245.7 185.265,245.99 183.71,245.99C182.132,245.99 180.824,245.739 179.788,245.237C178.754,244.731 177.916,243.936 177.271,242.848C176.629,241.759 176.306,240.395 176.306,238.759Z" style="fill:rgb(0,118,189);fill-rule:nonzero;"/>
        <path d="M193.164,231.75L203.862,231.75L203.862,234.759L197.509,234.759L197.509,237.204L202.934,237.204L202.934,240.031L197.509,240.031L197.509,245.752L193.164,245.752L193.164,231.75Z" style="fill:rgb(0,118,189);fill-rule:nonzero;"/>
        <path d="M212.668,231.75L218.36,231.75L220.557,240.269L222.745,231.75L228.417,231.75L228.417,245.752L224.883,245.752L224.883,235.075L222.142,245.752L218.943,245.752L216.212,235.075L216.212,245.752L212.668,245.752L212.668,231.75Z" style="fill:rgb(0,118,189);fill-rule:nonzero;"/>
        <path d="M234.96,238.778C234.96,240.193 235.221,241.207 235.745,241.827C236.27,242.443 236.987,242.753 237.891,242.753C238.819,242.753 239.54,242.449 240.048,241.847C240.557,241.24 240.815,240.154 240.815,238.59C240.815,237.269 240.547,236.308 240.016,235.698C239.484,235.092 238.764,234.789 237.852,234.789C236.981,234.789 236.28,235.095 235.752,235.715C235.224,236.331 234.96,237.354 234.96,238.778ZM230.63,238.759C230.63,236.474 231.27,234.694 232.541,233.423C233.816,232.147 235.589,231.513 237.861,231.513C240.192,231.513 241.988,232.139 243.25,233.39C244.508,234.639 245.141,236.393 245.141,238.645C245.141,240.281 244.863,241.625 244.313,242.671C243.762,243.718 242.966,244.533 241.926,245.116C240.883,245.7 239.589,245.99 238.034,245.99C236.456,245.99 235.149,245.739 234.112,245.237C233.079,244.731 232.241,243.936 231.595,242.848C230.953,241.759 230.63,240.395 230.63,238.759Z" style="fill:rgb(0,118,189);fill-rule:nonzero;"/>
        <path d="M251.853,234.922L251.853,242.57L252.913,242.57C253.819,242.57 254.461,242.473 254.842,242.27C255.224,242.071 255.524,241.72 255.742,241.221C255.958,240.722 256.065,239.91 256.065,238.789C256.065,237.306 255.824,236.292 255.341,235.744C254.856,235.196 254.054,234.922 252.932,234.922L251.853,234.922ZM247.527,231.75L253.956,231.75C255.221,231.75 256.243,231.923 257.027,232.266C257.806,232.61 258.45,233.103 258.959,233.745C259.467,234.391 259.837,235.138 260.068,235.991C260.295,236.846 260.411,237.749 260.411,238.704C260.411,240.2 260.241,241.36 259.898,242.185C259.56,243.011 259.087,243.701 258.48,244.256C257.877,244.813 257.229,245.185 256.535,245.37C255.586,245.625 254.725,245.752 253.956,245.752L247.527,245.752L247.527,231.75Z" style="fill:rgb(0,118,189);fill-rule:nonzero;"/>
        <path d="M262.676,231.75L274.269,231.75L274.269,234.739L267.012,234.739L267.012,236.966L273.744,236.966L273.744,239.822L267.012,239.822L267.012,242.58L274.481,242.58L274.481,245.752L262.676,245.752L262.676,231.75Z" style="fill:rgb(0,118,189);fill-rule:nonzero;"/>
        <path d="M276.808,231.75L281.137,231.75L281.137,242.303L287.889,242.303L287.889,245.752L276.808,245.752L276.808,231.75Z" style="fill:rgb(0,118,189);fill-rule:nonzero;"/>
        <path d="M304.088,240.412L302.54,235.379L301.001,240.412L304.088,240.412ZM304.995,243.44L300.065,243.44L299.387,245.752L294.966,245.752L300.228,231.75L304.946,231.75L310.211,245.752L305.682,245.752L304.995,243.44Z" style="fill:rgb(0,118,189);fill-rule:nonzero;"/>
        <path d="M311.586,231.75L323.178,231.75L323.178,234.739L315.921,234.739L315.921,236.966L322.654,236.966L322.654,239.822L315.921,239.822L315.921,242.58L323.39,242.58L323.39,245.752L311.586,245.752L311.586,231.75Z" style="fill:rgb(0,118,189);fill-rule:nonzero;"/>
        <path d="M330.123,237.423L331.948,237.423C332.144,237.423 332.525,237.36 333.092,237.233C333.379,237.175 333.614,237.028 333.796,236.794C333.976,236.559 334.067,236.288 334.067,235.981C334.067,235.528 333.923,235.183 333.636,234.941C333.35,234.697 332.812,234.576 332.023,234.576L330.123,234.576L330.123,237.423ZM325.777,245.752L325.777,231.75L332.988,231.75C334.325,231.75 335.348,231.864 336.052,232.096C336.76,232.324 337.331,232.748 337.764,233.37C338.198,233.99 338.413,234.746 338.413,235.636C338.413,236.415 338.247,237.084 337.918,237.647C337.585,238.212 337.128,238.668 336.551,239.019C336.179,239.242 335.674,239.428 335.032,239.571C335.547,239.744 335.922,239.916 336.16,240.09C336.317,240.203 336.547,240.448 336.851,240.823C337.154,241.201 337.357,241.487 337.458,241.693L339.55,245.752L334.661,245.752L332.349,241.472C332.056,240.921 331.794,240.559 331.563,240.393C331.253,240.178 330.898,240.07 330.503,240.07L330.123,240.07L330.123,245.752L325.777,245.752Z" style="fill:rgb(0,118,189);fill-rule:nonzero;"/>
        <path d="M344.381,238.778C344.381,240.193 344.642,241.207 345.168,241.827C345.692,242.443 346.41,242.753 347.312,242.753C348.242,242.753 348.961,242.449 349.47,241.847C349.979,241.24 350.237,240.154 350.237,238.59C350.237,237.269 349.969,236.308 349.438,235.698C348.907,235.092 348.186,234.789 347.273,234.789C346.403,234.789 345.702,235.095 345.173,235.715C344.646,236.331 344.381,237.354 344.381,238.778ZM340.052,238.759C340.052,236.474 340.691,234.694 341.962,233.423C343.237,232.147 345.01,231.513 347.283,231.513C349.614,231.513 351.41,232.139 352.671,233.39C353.93,234.639 354.563,236.393 354.563,238.645C354.563,240.281 354.286,241.625 353.735,242.671C353.183,243.718 352.388,244.533 351.348,245.116C350.305,245.7 349.011,245.99 347.456,245.99C345.878,245.99 344.571,245.739 343.534,245.237C342.501,244.731 341.663,243.936 341.017,242.848C340.376,241.759 340.052,240.395 340.052,238.759Z" style="fill:rgb(0,118,189);fill-rule:nonzero;"/>
        <path d="M356.919,231.75L360.962,231.75L366.233,239.496L366.233,231.75L370.311,231.75L370.311,245.752L366.233,245.752L360.988,238.064L360.988,245.752L356.919,245.752L356.919,231.75Z" style="fill:rgb(0,118,189);fill-rule:nonzero;"/>
        <path d="M380.701,240.412L379.153,235.379L377.614,240.412L380.701,240.412ZM381.608,243.44L376.678,243.44L376.001,245.752L371.58,245.752L376.841,231.75L381.558,231.75L386.824,245.752L382.295,245.752L381.608,243.44Z" style="fill:rgb(0,118,189);fill-rule:nonzero;"/>
        <path d="M396.649,231.75L400.968,231.75L400.968,240.099C400.968,240.927 400.838,241.706 400.581,242.443C400.323,243.177 399.919,243.822 399.368,244.373C398.817,244.924 398.24,245.309 397.633,245.533C396.793,245.843 395.785,246 394.605,246C393.923,246 393.18,245.954 392.376,245.856C391.57,245.762 390.898,245.572 390.357,245.289C389.816,245.005 389.321,244.602 388.871,244.079C388.42,243.558 388.114,243.02 387.948,242.466C387.681,241.576 387.547,240.787 387.547,240.099L387.547,231.75L391.867,231.75L391.867,240.298C391.867,241.064 392.079,241.661 392.499,242.088C392.923,242.519 393.509,242.733 394.262,242.733C395.005,242.733 395.592,242.521 396.017,242.098C396.437,241.677 396.649,241.074 396.649,240.298L396.649,231.75Z" style="fill:rgb(0,118,189);fill-rule:nonzero;"/>
        <path d="M402.85,231.75L416.001,231.75L416.001,235.209L411.586,235.209L411.586,245.752L407.26,245.752L407.26,235.209L402.85,235.209L402.85,231.75Z" style="fill:rgb(0,118,189);fill-rule:nonzero;"/>
        <rect x="418.129" y="231.75" width="4.336" height="14.002" style="fill:rgb(0,118,189);fill-rule:nonzero;"/>
        <path d="M434.892,240.031L438.683,241.178C438.429,242.241 438.029,243.128 437.481,243.842C436.933,244.556 436.252,245.094 435.44,245.455C434.628,245.82 433.594,246 432.343,246C430.821,246 429.576,245.778 428.614,245.338C427.649,244.894 426.814,244.115 426.113,243.001C425.416,241.886 425.063,240.461 425.063,238.724C425.063,236.405 425.679,234.622 426.912,233.381C428.144,232.135 429.888,231.513 432.141,231.513C433.904,231.513 435.29,231.867 436.3,232.582C437.311,233.296 438.061,234.391 438.55,235.867L434.729,236.719C434.595,236.292 434.456,235.978 434.309,235.779C434.068,235.45 433.771,235.196 433.421,235.017C433.07,234.837 432.678,234.749 432.245,234.749C431.267,234.749 430.514,235.144 429.993,235.933C429.598,236.519 429.399,237.439 429.399,238.694C429.399,240.249 429.637,241.311 430.106,241.889C430.58,242.466 431.241,242.753 432.092,242.753C432.919,242.753 433.545,242.521 433.969,242.055C434.393,241.592 434.7,240.917 434.892,240.031Z" style="fill:rgb(0,118,189);fill-rule:nonzero;"/>
        <path d="M440.03,241.119L444.147,240.862C444.236,241.53 444.418,242.039 444.692,242.391C445.135,242.958 445.774,243.238 446.602,243.238C447.218,243.238 447.694,243.095 448.03,242.805C448.363,242.515 448.529,242.179 448.529,241.798C448.529,241.435 448.373,241.109 448.053,240.823C447.733,240.536 446.997,240.266 445.836,240.011C443.939,239.584 442.586,239.019 441.777,238.312C440.962,237.605 440.555,236.705 440.555,235.61C440.555,234.89 440.763,234.208 441.181,233.569C441.598,232.931 442.224,232.429 443.062,232.06C443.9,231.695 445.047,231.513 446.504,231.513C448.294,231.513 449.66,231.845 450.599,232.51C451.538,233.175 452.095,234.234 452.275,235.685L448.196,235.923C448.088,235.294 447.86,234.834 447.511,234.548C447.167,234.264 446.687,234.12 446.078,234.12C445.572,234.12 445.194,234.225 444.94,234.439C444.685,234.651 444.558,234.912 444.558,235.219C444.558,235.44 444.663,235.64 444.871,235.818C445.077,236.005 445.559,236.174 446.325,236.334C448.215,236.741 449.569,237.155 450.387,237.572C451.206,237.99 451.801,238.505 452.173,239.124C452.545,239.74 452.734,240.432 452.734,241.198C452.734,242.094 452.483,242.923 451.988,243.679C451.492,244.438 450.797,245.012 449.905,245.403C449.014,245.795 447.89,245.99 446.534,245.99C444.154,245.99 442.504,245.533 441.588,244.614C440.669,243.698 440.151,242.534 440.03,241.119Z" style="fill:rgb(0,118,189);fill-rule:nonzero;"/>
        <path d="M993.018,229.834L998.666,229.834C998.739,231.154 999.105,232.144 999.838,232.804C1000.57,233.464 1001.64,233.794 1003.03,233.794C1004.24,233.794 1005.16,233.61 1005.82,233.207C1006.48,232.804 1006.81,232.254 1006.81,231.52C1006.81,231.154 1006.73,230.824 1006.59,230.567C1006.4,230.274 1006.18,230.054 1005.93,229.907C1005.49,229.687 1004.46,229.32 1002.77,228.844C1001.12,228.331 999.692,227.853 998.555,227.414C996.906,226.754 995.622,225.874 994.779,224.81C993.935,223.71 993.496,222.464 993.496,221.033C993.496,218.834 994.302,217.073 995.952,215.79C997.602,214.47 999.838,213.847 1002.7,213.847C1005.45,213.847 1007.65,214.507 1009.26,215.9C1010.91,217.257 1011.72,219.09 1011.72,221.4L1006.18,221.4C1006.04,220.337 1005.67,219.567 1005.05,219.054C1004.39,218.54 1003.51,218.283 1002.3,218.283C1001.34,218.283 1000.57,218.467 999.986,218.87C999.399,219.237 999.105,219.75 999.105,220.374C999.105,221.363 1000.5,222.353 1003.32,223.233C1003.84,223.417 1004.24,223.527 1004.5,223.637L1004.75,223.71C1007.65,224.664 1009.48,225.397 1010.22,225.983C1010.95,226.607 1011.54,227.304 1011.9,228.147C1012.31,228.954 1012.49,229.871 1012.49,230.86C1012.49,233.171 1011.61,234.931 1009.85,236.214C1008.09,237.498 1005.63,238.121 1002.48,238.121C999.472,238.121 997.199,237.461 995.622,236.067C994.082,234.711 993.202,232.621 993.018,229.834ZM990.122,229.431C989.718,232.181 988.619,234.344 986.858,235.848C985.061,237.351 982.788,238.121 979.964,238.121C976.591,238.121 973.878,237.02 971.825,234.821C969.734,232.621 968.708,229.761 968.708,226.167C968.708,222.427 969.771,219.457 971.861,217.22C973.988,215.02 976.775,213.884 980.294,213.884C983.082,213.884 985.391,214.653 987.152,216.12C988.912,217.587 989.938,219.567 990.159,222.134L984.658,222.134C984.365,221.033 983.851,220.19 983.082,219.641C982.348,219.054 981.358,218.797 980.111,218.797C978.461,218.797 977.178,219.457 976.224,220.74C975.271,222.06 974.757,223.82 974.757,226.094C974.757,228.331 975.235,230.091 976.151,231.338C977.031,232.584 978.315,233.207 979.964,233.207C981.285,233.207 982.348,232.878 983.155,232.218C983.961,231.594 984.438,230.641 984.658,229.431L990.122,229.431ZM959.137,237.498L959.137,214.47L965.004,214.47L965.004,237.498L959.137,237.498ZM943.883,237.498L943.883,219.127L937.32,219.127L937.32,214.47L956.387,214.47L956.387,219.127L949.787,219.127L949.787,237.498L943.883,237.498ZM915.539,214.47L921.333,214.47L921.333,228.844C921.333,230.421 921.626,231.558 922.25,232.218C922.836,232.914 923.826,233.244 925.219,233.244C926.576,233.244 927.566,232.914 928.153,232.218C928.74,231.558 929.033,230.421 929.033,228.844L929.033,214.47L934.9,214.47L934.9,228.147C934.9,230.054 934.716,231.594 934.349,232.768C933.983,233.904 933.36,234.857 932.479,235.664C931.563,236.471 930.536,237.095 929.326,237.498C928.116,237.937 926.759,238.121 925.255,238.121C923.753,238.121 922.396,237.937 921.186,237.498C919.976,237.095 918.913,236.471 917.996,235.664C917.152,234.857 916.492,233.867 916.126,232.73C915.722,231.594 915.539,230.054 915.539,228.147L915.539,214.47ZM899.405,214.47L905.859,214.47L913.999,237.498L907.655,237.498L906.262,233.281L898.561,233.281L897.242,237.498L891.118,237.498L899.405,214.47ZM899.955,228.514L905.015,228.514L902.449,220.557L899.955,228.514ZM868.86,237.498L868.86,214.47L875.241,214.47L879.604,222.023C880.3,223.27 880.961,224.48 881.621,225.69C882.245,226.9 882.831,228.074 883.418,229.284C883.307,227.523 883.271,225.91 883.234,224.37C883.161,222.867 883.161,221.511 883.161,220.374L883.161,214.47L888.844,214.47L888.844,237.498L882.501,237.498L877.954,229.687C877.441,228.77 876.854,227.744 876.231,226.607C875.607,225.471 874.947,224.261 874.251,222.94C874.361,224.407 874.434,225.837 874.507,227.12C874.544,228.404 874.581,229.541 874.581,230.53L874.581,237.498L868.86,237.498ZM842.239,225.983C842.239,222.244 843.266,219.31 845.32,217.11C847.41,214.946 850.196,213.884 853.753,213.884C857.31,213.884 860.133,214.946 862.223,217.146C864.313,219.31 865.34,222.28 865.34,225.983C865.34,229.724 864.313,232.694 862.223,234.857C860.133,237.058 857.31,238.121 853.753,238.121C850.196,238.121 847.41,237.058 845.32,234.857C843.266,232.694 842.239,229.761 842.239,225.983ZM848.216,225.983C848.216,228.331 848.693,230.127 849.646,231.374C850.599,232.657 851.957,233.281 853.753,233.281C855.549,233.281 856.907,232.657 857.897,231.374C858.85,230.127 859.327,228.331 859.327,225.983C859.327,223.674 858.85,221.877 857.897,220.63C856.907,219.347 855.549,218.724 853.753,218.724C851.957,218.724 850.599,219.347 849.646,220.594C848.693,221.841 848.216,223.637 848.216,225.983ZM819.688,237.498L819.688,214.47L830.689,214.47C833.586,214.47 835.749,214.983 837.142,216.01C838.5,217.073 839.196,218.686 839.196,220.887C839.196,222.17 838.903,223.27 838.316,224.187C837.729,225.103 836.812,225.874 835.566,226.497C836.592,226.9 837.289,227.414 837.693,228.074C838.132,228.734 838.352,229.907 838.425,231.594C838.462,232.034 838.5,232.694 838.536,233.464C838.609,235.334 838.903,236.397 839.489,236.691L839.489,237.498L833.293,237.498C832.999,236.691 832.816,235.555 832.779,234.161C832.743,232.73 832.706,231.851 832.669,231.484C832.559,230.567 832.265,229.907 831.753,229.504C831.239,229.101 830.469,228.881 829.442,228.881L825.555,228.881L825.555,237.498L819.688,237.498ZM825.555,224.334L829.919,224.334C831.092,224.334 831.972,224.114 832.522,223.674C833.072,223.233 833.366,222.537 833.366,221.584C833.366,220.74 833.109,220.117 832.559,219.677C832.009,219.273 831.166,219.09 830.066,219.09L825.555,219.09L825.555,224.334ZM798.347,237.498L798.347,214.47L815.838,214.47L815.838,219.2L804.214,219.2L804.214,223.27L814.848,223.27L814.848,227.853L804.214,227.853L804.214,232.768L816.205,232.768L816.205,237.498L798.347,237.498ZM781.517,214.47L787.934,214.47L796.074,237.498L789.731,237.498L788.337,233.281L780.637,233.281L779.317,237.498L773.23,237.498L781.517,214.47ZM782.03,228.514L787.09,228.514L784.524,220.557L782.03,228.514ZM746.536,237.498L746.536,214.47L752.476,214.47L752.476,232.511L763.623,232.511L763.623,237.498L746.536,237.498ZM725.011,237.498L725.011,214.47L742.539,214.47L742.539,219.2L730.915,219.2L730.915,223.27L741.512,223.27L741.512,227.853L730.915,227.853L730.915,232.768L742.906,232.768L742.906,237.498L725.011,237.498ZM701.031,237.498L701.031,214.47L710.894,214.47C714.268,214.47 716.908,215.46 718.705,217.44C720.538,219.42 721.455,222.28 721.455,225.983C721.455,229.834 720.502,232.73 718.631,234.638C716.761,236.544 713.901,237.498 710.125,237.498L701.031,237.498ZM706.97,232.657L710.161,232.657C711.995,232.657 713.351,232.107 714.194,231.044C715.038,229.98 715.441,228.294 715.441,225.983C715.441,223.71 715.038,222.023 714.194,220.96C713.351,219.86 711.995,219.347 710.161,219.347L706.97,219.347L706.97,232.657ZM674.373,225.983C674.373,222.244 675.399,219.31 677.49,217.11C679.543,214.946 682.367,213.884 685.886,213.884C689.443,213.884 692.267,214.946 694.357,217.146C696.447,219.31 697.51,222.28 697.51,225.983C697.51,229.724 696.447,232.694 694.357,234.857C692.267,237.058 689.443,238.121 685.886,238.121C682.367,238.121 679.543,237.058 677.49,234.857C675.399,232.694 674.373,229.761 674.373,225.983ZM680.349,225.983C680.349,228.331 680.827,230.127 681.78,231.374C682.733,232.657 684.127,233.281 685.886,233.281C687.683,233.281 689.077,232.657 690.03,231.374C690.983,230.127 691.461,228.331 691.461,225.983C691.461,223.674 690.983,221.877 690.03,220.63C689.077,219.347 687.683,218.724 685.886,218.724C684.127,218.724 682.733,219.347 681.78,220.594C680.827,221.841 680.349,223.637 680.349,225.983ZM645.808,237.498L645.808,214.47L653.912,214.47L656.956,225.654C657.249,226.681 657.468,227.634 657.689,228.551C657.909,229.504 658.092,230.384 658.276,231.301C658.459,230.348 658.679,229.357 658.935,228.331C659.192,227.304 659.486,226.204 659.816,225.03L662.675,214.47L670.779,214.47L670.779,237.498L665.389,237.498L665.389,227.268C665.389,226.57 665.389,225.544 665.425,224.261C665.462,222.977 665.536,221.474 665.609,219.75L661.172,237.498L655.342,237.498L651.015,219.75C651.088,221.804 651.126,223.637 651.162,225.287C651.235,226.9 651.235,228.184 651.235,229.101L651.235,237.498L645.808,237.498ZM921.516,199.069L921.516,176.042L938.016,176.042L938.016,180.846L927.382,180.846L927.382,185.612L936.623,185.612L936.623,190.379L927.382,190.379L927.382,199.069L921.516,199.069ZM894.785,187.593C894.785,183.852 895.848,180.882 897.902,178.719C899.955,176.556 902.778,175.455 906.336,175.455C909.892,175.455 912.715,176.556 914.805,178.719C916.859,180.919 917.922,183.852 917.922,187.593C917.922,191.332 916.859,194.266 914.805,196.466C912.715,198.63 909.892,199.729 906.336,199.729C902.778,199.729 899.955,198.63 897.902,196.466C895.848,194.303 894.785,191.332 894.785,187.593ZM900.798,187.593C900.798,189.939 901.275,191.736 902.228,192.982C903.181,194.229 904.539,194.852 906.336,194.852C908.131,194.852 909.489,194.229 910.442,192.982C911.432,191.736 911.909,189.939 911.909,187.593C911.909,185.246 911.432,183.449 910.442,182.202C909.489,180.955 908.131,180.332 906.336,180.332C904.539,180.332 903.181,180.955 902.228,182.202C901.275,183.449 900.798,185.246 900.798,187.593ZM870.584,199.069L870.584,190.416L862.627,176.042L869.227,176.042L873.481,185.355L877.698,176.042L884.371,176.042L876.304,190.416L876.304,199.069L870.584,199.069ZM835.675,199.069L835.675,176.042L843.816,176.042L846.823,187.263C847.116,188.252 847.336,189.206 847.556,190.159C847.776,191.076 847.997,191.992 848.143,192.873C848.363,191.919 848.583,190.966 848.839,189.939C849.059,188.912 849.353,187.812 849.683,186.602L852.544,176.042L860.647,176.042L860.647,199.069L855.256,199.069L855.256,188.876C855.256,188.143 855.294,187.152 855.33,185.832C855.367,184.549 855.403,183.046 855.476,181.358L851.04,199.069L845.21,199.069L840.882,181.358C840.956,183.412 840.993,185.246 841.066,186.859C841.102,188.509 841.102,189.756 841.102,190.673L841.102,199.069L835.675,199.069ZM814.335,199.069L814.335,176.042L831.789,176.042L831.789,180.772L820.239,180.772L820.239,184.842L830.798,184.842L830.798,189.463L820.239,189.463L820.239,194.376L832.156,194.376L832.156,199.069L814.335,199.069ZM790.354,199.069L790.354,176.042L800.181,176.042C803.591,176.042 806.195,177.032 808.028,179.049C809.861,181.028 810.742,183.889 810.742,187.593C810.742,191.442 809.825,194.303 807.918,196.209C806.047,198.116 803.224,199.069 799.411,199.069L790.354,199.069ZM796.294,194.266L799.484,194.266C801.318,194.266 802.638,193.716 803.481,192.652C804.325,191.553 804.764,189.902 804.764,187.593C804.764,185.282 804.325,183.596 803.481,182.532C802.638,181.469 801.318,180.919 799.484,180.919L796.294,180.919L796.294,194.266ZM773.523,176.042L779.977,176.042L788.081,199.069L781.774,199.069L780.343,194.852L772.643,194.852L771.36,199.069L765.236,199.069L773.523,176.042ZM774.074,190.086L779.097,190.086L776.53,182.165L774.074,190.086ZM764.063,191.003C763.696,193.789 762.596,195.916 760.799,197.419C759.04,198.96 756.729,199.729 753.943,199.729C750.569,199.729 747.856,198.63 745.765,196.43C743.712,194.229 742.685,191.332 742.685,187.739C742.685,183.999 743.749,181.028 745.838,178.829C747.929,176.592 750.753,175.492 754.273,175.492C757.059,175.492 759.333,176.226 761.129,177.692C762.889,179.159 763.879,181.176 764.136,183.705L758.599,183.705C758.342,182.605 757.83,181.762 757.059,181.212C756.326,180.662 755.299,180.369 754.089,180.369C752.439,180.369 751.119,181.028 750.166,182.349C749.212,183.632 748.736,185.429 748.736,187.666C748.736,189.939 749.175,191.699 750.092,192.946C751.009,194.156 752.293,194.779 753.943,194.779C755.262,194.779 756.326,194.486 757.096,193.826C757.903,193.166 758.416,192.249 758.599,191.003L764.063,191.003ZM726.808,176.042L733.261,176.042L741.366,199.069L735.058,199.069L733.628,194.852L725.928,194.852L724.645,199.069L718.521,199.069L726.808,176.042ZM727.358,190.086L732.381,190.086L729.815,182.165L727.358,190.086Z" style="fill:rgb(0,118,189);fill-rule:nonzero;"/>
        <path d="M700.407,65.965C681.23,65.745 662.529,63.288 652.152,53.571C653.729,74.325 673.566,79.715 700.628,79.715L777.923,79.715C793.251,79.715 807.002,81.292 816.938,89.872C811.511,72.528 795.744,67.541 777.483,65.965L700.407,65.965ZM708.84,88.516L781.994,88.516C799.228,89.542 815.141,90.532 822.805,108.792C813.895,101.716 800.254,101.716 781.994,101.716L709.17,101.716C683.723,101.716 671.439,93.466 665.462,80.412C676.5,88.516 691.937,88.516 708.84,88.516ZM969.955,44L888.478,44C869.52,45.467 855,48.951 848.363,68.678C858.044,58.521 872.234,57.531 888.478,57.531L969.955,57.531C998.152,57.531 1017.29,44.33 1018.32,25.63C1012.23,36.777 988.435,44 969.955,44ZM957.67,66.075C976.848,65.745 995.439,63.288 1006.26,53.461C1004.68,73.995 984.511,79.495 957.34,79.495L880.484,79.495C864.791,79.495 850.929,80.852 840.919,89.542C846.419,72.638 862.223,67.211 880.484,66.075L957.67,66.075ZM949.017,88.516C966.251,88.516 981.798,88.516 993.055,80.412C987.225,93.466 974.575,101.716 949.017,101.716L875.864,101.716C858.044,101.716 844.403,101.716 835.382,108.792C842.716,90.532 859.07,89.542 876.304,88.516L949.017,88.516ZM816.938,37.804L829.295,112.423L841.799,37.804L816.938,37.804ZM831.092,0.145C825.739,10.303 808.248,16.609 818.185,35.42L831.789,35.42C824.711,26.767 834.356,13.016 831.092,0.145ZM834.026,9.973C835.712,18.516 829.295,26.767 834.356,35.42L839.342,35.42C845.429,28.233 841.799,18.516 834.026,9.973ZM905.492,122.506L896.801,142.601L914.512,142.601L905.492,122.506ZM870.327,161.632L896.252,109.929L914.512,109.929L939.886,161.632L924.083,161.632L918.362,151.475L891.191,151.475L886.241,161.632L870.327,161.632ZM793.47,161.632L793.47,109.929L816.131,109.929L829.295,149.237L842.569,109.929L864.35,109.929L864.35,161.632L849.573,161.632L849.573,120.38L836.482,161.632L821.338,161.632L808.468,120.38L808.468,161.632L793.47,161.632ZM752.916,122.506L744.225,142.601L762.046,142.601L752.916,122.506ZM717.971,161.632L743.565,109.929L762.046,109.929L787.494,161.632L771.617,161.632L766.08,151.475L738.798,151.475L733.959,161.632L717.971,161.632ZM687.867,44L769.49,44C788.3,45.467 802.858,49.427 809.605,68.678C799.924,58.998 785.587,57.641 769.49,57.641L687.867,57.641C659.816,57.641 641.004,44.917 639.978,25.96C645.735,37.253 669.386,44 687.867,44Z" style="fill:rgb(0,118,189);"/>
        <path d="M934.863,114.769L936.696,114.769C937.063,114.769 937.356,114.696 937.577,114.623C937.796,114.549 937.98,114.439 938.089,114.256C938.2,114.073 938.273,113.89 938.273,113.669C938.273,113.376 938.163,113.12 937.943,112.936C937.723,112.716 937.356,112.643 936.879,112.643L934.863,112.643L934.863,114.769ZM933.983,118.326L933.983,111.909L936.843,111.909C937.429,111.909 937.87,111.983 938.163,112.093C938.457,112.203 938.676,112.423 938.86,112.716C939.044,113.009 939.153,113.303 939.153,113.669C939.153,114.109 939.006,114.513 938.713,114.806C938.419,115.136 937.943,115.319 937.32,115.43C937.54,115.54 937.723,115.649 937.833,115.76C938.089,115.979 938.31,116.273 938.566,116.603L939.667,118.326L938.603,118.326L937.759,117.006C937.503,116.64 937.283,116.31 937.136,116.126C936.953,115.906 936.843,115.76 936.696,115.686C936.586,115.613 936.44,115.54 936.293,115.54C936.219,115.503 936.073,115.503 935.853,115.503L934.863,115.503L934.863,118.326L933.983,118.326Z" style="fill:rgb(0,118,189);fill-rule:nonzero;"/>
        <path d="M936.476,119.866C937.796,119.866 939.006,119.316 939.886,118.436C940.766,117.593 941.28,116.383 941.28,115.063C941.28,113.706 940.766,112.496 939.886,111.653C939.006,110.772 937.796,110.223 936.476,110.223L936.44,110.223C935.12,110.223 933.91,110.772 933.03,111.653C932.186,112.496 931.636,113.706 931.636,115.063C931.636,116.383 932.15,117.593 933.03,118.436C933.91,119.316 935.12,119.866 936.476,119.866ZM936.476,120.966C934.827,120.966 933.323,120.307 932.259,119.206C931.16,118.143 930.5,116.676 930.5,115.063C930.5,113.413 931.16,111.909 932.259,110.846C933.323,109.746 934.827,109.086 936.44,109.086L936.476,109.086C938.089,109.086 939.593,109.746 940.657,110.846C941.756,111.909 942.417,113.413 942.417,115.063C942.417,116.676 941.756,118.143 940.657,119.243C939.593,120.307 938.089,120.966 936.476,120.966Z" style="fill:rgb(0,118,189);fill-rule:nonzero;"/>
    </g>
</svg>
