<?xml version="1.0" encoding="UTF-8" standalone="no"?>
<svg
   version="1.1"
   viewBox="0 0 250.29899 362.901"
   id="svg258"
   sodipodi:docname="MAM-Logo-No_Text-sm.svg"
   inkscape:version="1.4 (e7c3feb1, 2024-10-09)"
   width="250.299"
   height="362.901"
   xmlns:inkscape="http://www.inkscape.org/namespaces/inkscape"
   xmlns:sodipodi="http://sodipodi.sourceforge.net/DTD/sodipodi-0.dtd"
   xmlns="http://www.w3.org/2000/svg"
   xmlns:svg="http://www.w3.org/2000/svg">
  <defs
     id="defs258" />
  <sodipodi:namedview
     id="namedview258"
     pagecolor="#ffffff"
     bordercolor="#666666"
     borderopacity="1.0"
     inkscape:showpageshadow="2"
     inkscape:pageopacity="0.0"
     inkscape:pagecheckerboard="0"
     inkscape:deskcolor="#d1d1d1"
     inkscape:zoom="0.98095336"
     inkscape:cx="266.5774"
     inkscape:cy="330.80064"
     inkscape:window-width="1472"
     inkscape:window-height="920"
     inkscape:window-x="0"
     inkscape:window-y="36"
     inkscape:window-maximized="0"
     inkscape:current-layer="svg258" />
  <g
     fill="#c4e4f6"
     id="g152"
     style="display:inline"
     transform="translate(-132.59731,-78.669208)">
    <path
       d="m 337.48983,90.936425 c 7.70987,4.639799 10.57502,8.520482 10.28098,17.955435 -2.61214,13.01725 27.13717,9.51342 21.47888,27.94095 -6.25228,20.95437 -26.00517,33.5197 -39.44969,49.69219 -10.50422,8.53177 -17.98923,23.58901 -30.56278,27.88399 3.51005,-15.73197 14.52575,-28.27517 22.2709,-37.88454 14.18315,-14.97805 24.85513,-24.99729 30.23188,-41.23445 -13.09975,-7.01721 -25.39674,18.35248 -37.49442,24.74027 -10.85773,9.338 -21.48433,18.96793 -32.14558,28.54973 2.38862,7.31303 8.39066,13.6884 11.0725,21.195 5.64887,8.02083 9.74711,17.03763 14.7475,25.475 12.52026,-8.30541 34.5292,-17.55862 47.07625,-4.75 1.16433,9.37284 -27.2894,9.28141 -6.37625,9.81 15.82096,0.69519 -1.76424,31.46651 -14.06,18.24 12.99957,6.02619 3.47205,17.17386 -7.57,12.03 13.89352,6.37419 18.4511,24.05346 23.1275,39.025 7.12641,20.75235 8.25799,43.44561 2.9525,64.735 -3.96091,6.00398 -6.49934,20.96776 -14.585,28.415 -10.91102,11.94861 -22.10606,20.18176 -37.09625,27.53953 -14.20193,5.61623 -29.70906,6.7087 -44.56875,7.33547 -15.13558,-3.23268 -30.85769,-7.14316 -43.94625,-18.08687 C 197.9086,409.14205 191.73117,389.87718 185.19,375.22 c -11.90585,3.95996 -32.64377,13.46681 -26.35437,1.27768 5.11817,-9.91924 18.92549,-15.69634 26.17437,-18.97768 2.4561,-17.43723 -0.36117,-38.88297 14.20062,-51.62062 17.76722,-13.19994 48.23775,7.46164 38.42141,29.05468 -6.45114,15.81618 -21.22616,26.50869 -35.8952,33.96894 2.90926,14.97822 12.65467,23.87827 23.69317,31.887 8.10705,4.21929 20.04316,10.10853 31.49062,11.63813 32.87568,5.46342 67.3865,-17.22532 74.67688,-49.73313 2.82142,-7.77032 5.25084,-23.29025 4.40475,-31.29128 -0.91196,-13.31639 -0.74714,-31.80984 -8.36478,-42.29945 -4.78285,-2.40058 -10.19227,-11.46399 -9.36559,0.89823 -7.0183,8.51876 -14.76215,-12.54902 -9.75188,5.4475 -2.24641,8.27413 -23.89338,16.01176 -24.69,4.18 -12.46898,15.70711 -13.42435,-17.32699 -8.52609,-25.21453 4.74781,-12.36068 19.21854,-26.95339 -0.83391,-32.75547 -19.17534,18.21758 -38.51287,36.54607 -58.43,53.97 -14.80011,14.95321 -37.91075,6.9653 -41.06,-12.62 -24.7457,9.51767 -38.96546,-27.41158 -17.37969,-40.29453 18.24218,-19.97198 36.2128,-40.22586 54.50969,-60.10547 -3.70579,-6.32219 -2.53038,-14.86356 -0.74996,-19.99074 1.71218,-4.93064 -0.51462,-11.93071 1.81636,-15.43021 5.09587,-4.96915 8.85712,-3.09179 15.74362,-2.62507 6.48187,0.43931 6.89148,-4.21322 14.51086,-1.8974 8.26815,5.75545 10.10469,1.81326 19.55261,-5.64931 6.45342,-5.09733 12.55009,-13.5483 20.00307,-19.67063 12.47347,-11.67888 23.94341,-23.809779 40.79434,-29.331347 6.01528,0.153833 8.31213,0.877198 13.70893,2.901132 z"
       id="path150"
       sodipodi:nodetypes="ccccccccccccccccccccccsccccccccssccccccccscscsccc" />
  </g>
  <g
     fill="#ffffff"
     id="g217"
     style="display:inline"
     transform="translate(-132.59731,-78.669208)">
    <path
       d="m 247.36,199.31 q -3.09,-0.39 -4.68,1.13 -27.46,26.22 -62.87,60.64 -3.67,3.57 -8.33,5.65 c -2.96,1.32 -6.5,1.36 -7.51,-2.18 -1.02,-3.57 0.03,-5.65 2.51,-8.64 q 22.41,-27.05 43.49,-53.88 c 1.31,-1.67 2.92,-3.19 4.31,-5 q 7.71,-10.08 17.22,-21.53 1.24,-1.49 2.74,-2.75 c 6.1,-5.09 13.49,-9.86 20.3,-15.77 3.45,-3 10.54,-7.44 15.27,-12.02 1.92,-1.86 4.3,-3.05 6.51,-5.06 q 3.9,-3.54 10.12,-7.98 c 4.7,-3.36 7.91,-6.58 12.91,-10.07 q 1.9,-1.33 21.24,-16.7 a 2.54,2.49 14.6 0 1 0.66,-0.38 c 3.9,-1.61 11.81,-0.86 9.16,5.43 -3.4,8.09 -10.35,13 -15.95,19.01 q -2.29,2.47 -12.75,12.51 c -3.97,3.81 -10.55,10.9 -16.16,15.92 -2.41,2.16 -4.51,4.83 -7.31,7.57 q -9.07,8.92 -14.44,14.55 c -2.63,2.76 -5.55,4.92 -8.06,7.12 a 1.57,1.55 -14.7 0 0 -0.5,0.84 q -0.56,2.62 0.67,4.61 3.65,5.91 8.39,13.93 a 1.85,1.84 49.5 0 1 -0.16,2.1 q -0.51,0.64 -2.36,1.34 a 1.06,1.06 0 0 1 -1.03,-0.16 l -12.71,-9.95 a 1.31,1.3 67.1 0 0 -0.68,-0.28 z"
       id="path194" />
    <path
       d="m 224.96,155.87 q 0.25,0.12 0.85,0.6 c 4.05,3.18 9.03,-0.25 13.33,-2.92 a 0.68,0.67 75.9 0 1 1.03,0.62 l -0.02,0.29 a 2.34,2.33 -17.6 0 1 -0.86,1.65 c -7.12,5.75 -13.15,10.65 -18.53,17.38 a 0.64,0.63 50.1 0 1 -1.05,-0.1 l -0.23,-0.42 a 1.72,1.72 0 0 1 0.26,-2.01 q 4.04,-4.27 5.18,-7.09 0.98,-2.39 -0.5,-7.55 a 0.38,0.38 0 0 1 0.54,-0.45 z"
       id="path195" />
    <path
       d="m 293.1,237.22 c 0.21556,1.29112 -1.09836,0.57128 -1.51308,0.009 -6.27564,-5.63619 -12.55128,-11.27237 -18.82692,-16.90856 -1.0786,-1.05944 0.16859,-2.05416 1.11433,-2.45378 1.97189,-1.07874 3.94378,-2.15748 5.91567,-3.23622 1.5968,-0.91357 2.92298,0.56075 3.2981,1.98246 0.75063,1.95918 1.50127,3.91836 2.2519,5.87754 0.69448,1.40895 1.93163,2.49146 2.53442,3.96706 0.5392,0.98956 0.66505,2.13181 1.07611,3.15885 1.38316,2.5347 2.76631,5.06939 4.14947,7.60409 z"
       id="path196" />
    <path
       d="m 268.38,233.7 a 0.3,0.3 0 0 1 -0.02,0.44 q -8.48,6.93 -15.12,11.76 c -5.66,4.12 -9.74,8.03 -15.08,11.9 -6.12,4.44 -9.03,7.03 -17.16,13.44 q -6.56,5.18 -8.2,6.9 c -3.4,3.59 -8.01,6.26 -12.02,8.11 q -1.95,0.9 -3.67,0.38 c -4.59,-1.4 -4.05,-5.51 -1.3,-8.2 q 1.86,-1.82 1.89,-1.85 11.37,-12.23 36.99,-40.14 1.22,-1.33 6.73,-6.9 c 3.5,-3.54 5.92,-6.94 9.01,-10.36 q 0.96,-1.05 1.38,-1.18 a 1.17,1.16 -32.1 0 1 1.19,0.27 z"
       id="path197" />
    <path
       d="m 197.01,351.05 0.26,-15.06 a 2.21,2.04 56.8 0 1 0.12,-0.71 q 1.86,-5.76 4.68,-10.51 4.63,-7.78 13.79,-4.8 a 3.27,3.07 69.5 0 1 0.81,0.4 c 5.45,3.71 3.44,10.72 -0.02,15.54 q -7.3,10.18 -17.97,16.14 a 1.12,1.12 0 0 1 -1.67,-1 z"
       id="path199" />
    <path
       d="m 325.1643,324.6645 a 2.79,1.18 -152.1 0 1 3.0179,0.2627 2.79,1.18 -152.1 0 1 1.9135,2.3483 2.79,1.18 -152.1 0 1 -3.0179,-0.2627 2.79,1.18 -152.1 0 1 -1.9135,-2.3483 z"
       id="path200" />
    <path
       d="m 367.6178,343.9314 a 4.6,1.71 -162.3 0 1 4.9021,-0.2305 4.6,1.71 -162.3 0 1 3.8623,3.0277 4.6,1.71 -162.3 0 1 -4.9021,0.2305 4.6,1.71 -162.3 0 1 -3.8623,-3.0277 z"
       id="path201" />
    <path
       d="m 108.95,350.52 q 0.49,0.03 0.59,2.21 0.04,0.77 -0.74,0.73 -0.79,-0.04 -0.67,-0.8 0.33,-2.16 0.82,-2.14 z"
       id="path202" />
    <path
       d="m 161.17,353.07 q 0.22,1.18 -0.18,1.87 a 0.74,0.66 -30.1 0 1 -1.34,-0.28 q 0.07,-0.71 0.95,-1.75 a 0.33,0.33 0 0 1 0.57,0.16 z"
       id="path205" />
    <path
       d="m 322.8906,357.1293 a 3.98,2.06 -153.1 0 1 4.4814,-0.0364 3.98,2.06 -153.1 0 1 2.6174,3.6378 3.98,2.06 -153.1 0 1 -4.4814,0.0364 3.98,2.06 -153.1 0 1 -2.6174,-3.6378 z"
       id="path206" />
    <path
       d="m 223.7161,375.4166 a 8.58,4.28 -42.2 0 1 -3.4811,8.934 8.58,4.28 -42.2 0 1 -9.2311,2.5928 8.58,4.28 -42.2 0 1 3.4811,-8.934 8.58,4.28 -42.2 0 1 9.2311,-2.5928 z"
       id="path207" />
    <path
       d="m 309.55,378.08 a 0.3,0.3 0 0 1 0.06,-0.42 l 0.43,-0.33 a 3.82,3.42 52.8 0 1 5.03,0.98 l 0.27,0.35 a 3.82,3.42 52.8 0 1 -0.41,5.11 l -0.44,0.32 a 0.3,0.3 0 0 1 -0.42,-0.05 z"
       id="path208" />
    <path
       d="m 148.99,386.37 a 0.29,0.29 0 0 1 -0.28,0.3 h -0.18 a 1.92,1.75 88.5 0 1 -1.8,-1.87 l -0.02,-0.68 a 1.92,1.75 88.5 0 1 1.7,-1.97 h 0.18 a 0.29,0.29 0 0 1 0.3,0.28 z"
       id="path209" />
    <path
       d="m 302.2543,385.1639 a 4.03,2.05 -121.5 0 1 3.8536,2.365 4.03,2.05 -121.5 0 1 0.3578,4.5072 4.03,2.05 -121.5 0 1 -3.8536,-2.365 4.03,2.05 -121.5 0 1 -0.3578,-4.5072 z"
       id="path210" />
    <path
       d="m 360.16,390.33 q 3.96,-0.14 7.59,4.04 a 1.11,1.1 64 0 1 -0.62,1.81 q -2.6,0.49 -4.97,-1.09 -0.52,-0.35 -2.42,-4.03 a 0.5,0.49 75.3 0 1 0.42,-0.73 z"
       id="path211" />
    <path
       d="m 268.06,391.4 a 0.38,0.38 0 0 1 0.75,0.01 l 1.57,7.68 a 0.54,0.54 0 0 1 -0.48,0.64 l -3.16,0.29 a 0.55,0.55 0 0 1 -0.58,-0.68 z"
       id="path212" />
    <path
       d="m 284.1283,394.1108 a 2.86,1.15 -74 0 1 0.3172,3.0662 2.86,1.15 -74 0 1 -1.8938,2.4322 2.86,1.15 -74 0 1 -0.3172,-3.0662 2.86,1.15 -74 0 1 1.8938,-2.4322 z"
       id="path213" />
    <path
       d="m 191.79,407.83 1.38,-0.2 a 1.4,1.4 0 0 1 1.42,2.07 q -4.04,7.15 -11.35,10.05 c -5.47,2.17 -10.43,0.14 -5.87,-6.1 q 4.04,-5.52 11.87,-8.02 a 1.34,1.34 0 0 1 1.73,1 q 0,0.04 -0.04,0.35 a 0.76,0.76 0 0 0 0.86,0.85 z"
       id="path214" />
    <path
       d="m 344.266,414.8998 a 4.64,1.74 -120.2 0 1 3.8378,3.1349 4.64,1.74 -120.2 0 1 0.8302,4.8855 4.64,1.74 -120.2 0 1 -3.8378,-3.1349 4.64,1.74 -120.2 0 1 -0.8302,-4.8855 z"
       id="path215" />
  </g>
  <g
     fill="#33424c"
     id="g226"
     style="display:inline"
     transform="translate(-132.59731,-78.669208)">
    <path
       d="m 358.3397,88.0237 a 0.39,0.07 -2.4 0 1 -0.3868,0.0862 0.39,0.07 -2.4 0 1 -0.3926,-0.0536 0.39,0.07 -2.4 0 1 0.3868,-0.0862 0.39,0.07 -2.4 0 1 0.3926,0.0536 z"
       id="path220" />
    <path
       d="m 269.02,181.4 c 3.68299,-4.94008 9.61954,-9.5554 14.12764,-14.38827 15.4273,-15.28965 31.03765,-30.40946 46.17423,-45.98454 3.98389,-4.62567 8.09753,-11.01328 5.88063,-17.31219 -4.02814,-5.419702 -12.71548,-6.640742 -17.90805,-2.10285 -23.38997,17.99684 -46.43653,36.45269 -69.64883,54.68348 -4.09708,3.64132 -8.14008,7.37197 -13.04562,9.93437 -0.78086,-1.18588 2.73272,-2.69202 3.77939,-3.97396 2.55935,-2.27858 5.5553,-4.17359 7.82749,-6.70538 -0.0131,-4.11936 -5.34226,-10.09561 -9.379,-6.5119 -2.69125,1.29151 -5.21081,4.77914 -8.38788,2.98124 -2.68783,-2.5623 -10.69408,-5.14467 -11.30406,-0.0944 0.49593,5.30551 6.13399,10.99151 -0.44313,14.95375 -4.83743,3.53448 -1.98383,9.5112 0.71182,12.86927 -4.55357,-1.85797 -7.53588,-8.10118 -3.74205,-12.22479 3.36596,-3.02863 5.24048,-6.40053 1.88195,-10.19057 -2.24714,-4.69932 -0.70405,-11.95325 5.94922,-10.14512 5.20464,-0.45045 10.43158,4.96026 14.27375,-0.67566 5.03336,-3.93273 12.53044,-1.50801 15.8625,3.4675 5.4724,-1.80595 10.06624,-8.44865 15.20687,-11.98625 16.1834,-13.85977 31.94814,-28.21446 48.21313,-41.97125 8.03413,-6.528495 21.60185,-4.158756 26.32589,5.27952 4.15677,8.5174 -1.36542,17.94776 -7.21589,24.12798 -21.55493,18.64322 -43.20241,37.18294 -64.59,56.02 l -0.28577,0.0935 z"
       id="path221" />
    <path
       d="m 248.85,206.53 c 4.72358,3.78694 9.27303,7.87491 14.10385,11.47644 0.24199,-4.50287 8.35869,-7.17739 7.11816,-10.96787 -3.124,-5.71952 -6.24801,-11.43905 -9.37201,-17.15857 0.91641,-3.154 5.58627,-4.50983 6.22272,-0.2804 3.6771,6.87548 7.62268,13.65164 11.13307,20.58879 -4.42918,2.20626 -13.79676,5.73462 -10.46579,12.29161 14.14209,12.60278 28.14331,25.44919 42.37337,37.89984 -2.67107,-6.06376 -6.5737,-12.78957 -9.5492,-19.20086 C 291.84714,223.79502 283.68024,206.21395 274.85,188.96 c 4.62476,-6.82648 11.97301,-12.26585 17.62831,-18.57506 16.06122,-16.03539 31.92015,-32.28058 47.957,-48.33431 7.1418,-4.50149 16.11948,0.34757 21.4382,5.57805 5.34212,7.21812 0.0163,16.42315 -4.50766,22.58922 -9.52862,11.27291 -20.41818,21.34045 -30.40145,32.2174 -7.00515,7.20498 -13.70594,14.7343 -20.8369,21.7972 0.24302,-4.06799 7.84714,-10.05264 10.94479,-14.76485 11.61369,-13.9078 22.75087,-28.21791 34.56533,-41.95033 3.60087,-4.9287 8.2537,-13.02687 2.39972,-18.07635 -6.72556,-5.7649 -14.46051,0.56443 -19.24847,5.55051 -18.95746,16.58824 -37.27532,33.90617 -56.36449,50.33665 -6.48551,4.86098 4.72909,12.21874 5.9575,18.35 7.68588,13.45434 14.83189,27.25493 22.77812,40.53687 2.80614,2.1632 6.74144,0.61934 10.07441,1.02011 10.75853,-0.12504 21.51706,-0.25007 32.27559,-0.37511 1.85402,1.89261 -1.89334,4.95058 -2.51672,7.29017 -1.04874,5.00999 -5.12364,4.13686 -8.92368,2.30415 -9.18291,-2.67134 -18.25399,-5.81037 -27.5396,-8.07432 0.1302,1.85766 4.00167,3.30426 5.60494,4.98256 6.57587,5.08124 13.53122,9.84601 19.87244,15.12294 -2.12412,0.78272 -5.17369,-1.02577 -7.6531,-1.26226 -3.54856,-0.59359 -7.15504,-2.2094 -10.66854,-2.18431 1.41642,4.26245 4.33809,8.19711 6.34168,12.33169 1.45524,2.79319 3.15454,5.51795 4.46207,8.35256 -2.65803,-1.50759 -5.11553,-4.474 -7.69617,-6.534 -1.99051,-1.29658 -3.93686,-4.5234 -5.97332,-4.59918 -0.46621,4.72599 -0.3279,9.71146 -1.16685,14.27746 -3.52384,-6.5143 -6.29768,-13.73966 -9.53298,-20.52752 -2.00166,-4.05987 -3.15251,-8.71763 -6.93353,-11.56374 -2.96864,-3.99145 -2.38646,0.77529 -1.54296,3.22573 2.50442,12.66618 5.31389,25.33718 7.62874,38.00039 -3.98514,1.95839 -8.24334,3.52758 -12.33242,5.33768 -1.90418,-5.8498 0.93024,-14.64476 0.81656,-21.57125 0.56716,-7.83877 1.60191,-15.68668 1.90344,-23.51875 -1.70868,0.93692 -1.84594,4.85445 -2.92771,6.95143 -3.8741,11.63619 -7.74819,23.27238 -11.62229,34.90857 -3.33732,-5.51497 -0.96562,-16.474 1.28758,-23.5517 2.93388,-8.07676 7.37729,-15.75628 13.32752,-21.95605 -0.75708,-2.77594 -3.98597,-4.40597 -5.78708,-6.68944 C 275.05535,233.13521 262.17267,220.3576 249.29,207.58 l -0.72,-1 c -0.0993,-0.0789 0.31041,-0.1417 0.28,-0.05 z"
       id="path222" />
    <path
       d="m 243.03,206.26 c 0.45849,1.86059 -4.40816,5.04752 -5.65807,7.43416 -17.27887,18.76721 -34.07475,37.97751 -51.15802,56.91662 -5.46147,5.16046 -12.91119,8.97092 -20.56393,8.52743 -9.84522,-0.93789 -17.09299,-12.22637 -13.19262,-21.47035 3.22606,-7.05329 9.55293,-11.97549 14.41523,-17.84631 19.93881,-21.87819 39.70264,-43.91586 59.28741,-66.11155 0.18613,1.89834 -4.18176,5.56132 -5.48425,7.95555 -10.59037,13.18957 -21.70898,25.9519 -32.22007,39.21043 -9.27229,11.64803 -18.8699,23.04475 -27.94482,34.84414 -4.24251,4.74571 -2.02735,12.62054 2.76211,16.05056 5.77341,2.50985 11.90336,-1.33738 16.6158,-4.48043 6.98317,-5.72293 13.1301,-12.40819 19.74282,-18.55425 14.51757,-14.10268 29.13032,-28.13459 43.39841,-42.476 z"
       id="path223" />
    <path
       d="m 247.81,215.36 c -18.868,20.23609 -37.80727,40.41291 -56.39574,60.90463 -3.81393,3.65253 -3.65952,10.16502 0.34683,13.58912 4.45288,3.97617 10.87012,1.22405 15.26089,-1.41066 7.99372,-4.91979 14.36253,-11.96903 22.02268,-17.35804 13.59692,-10.47175 26.99329,-21.32096 40.38534,-31.97505 0.19358,2.44247 -4.55181,4.66396 -6.2015,6.86427 -15.92253,14.34161 -31.47271,29.09316 -47.28239,43.55456 -5.38832,4.27808 -11.48516,8.37956 -18.42486,9.37336 -4.50958,0.4558 -8.86319,-1.70846 -11.35531,-5.45985 -3.43584,-4.30024 -6.669,-10.66142 -3.65391,-15.99468 3.97821,-5.01022 9.14927,-8.93225 13.6348,-13.47809 17.12834,-16.22428 34.13862,-32.57291 51.06317,-49.00957 0.18951,-0.1349 0.81455,0.10731 0.6,0.4 z"
       id="path224" />
    <path
       d="m 306.84,243.27 a 0.3,0.3 0 0 1 -0.08,-0.51 c 9.99,-8.46 23.42,-15.47 36.83,-13.11 q 3.27,0.57 5.43,2 a 0.28,0.28 0 0 1 -0.08,0.51 q -13.79,3.9 -40.95,11.24 -0.5,0.14 -1.15,-0.13 z"
       id="path225" />
    <path
       d="m 192.57,335.1 c -0.61746,7.98831 -1.35718,17.48044 1.35,24.6 13.73515,-6.2475 28.86392,-16.71343 31.15764,-32.76514 1.14705,-13.82904 -19.7565,-17.51802 -26.12005,-6.44783 -3.06081,2.49325 -7.03221,18.32384 -5.56259,5.91359 0.35208,-14.77429 16.91601,-25.8535 29.73776,-16.53825 10.96767,4.491 14.19217,18.72702 7.50724,28.09763 -7.77137,13.87096 -22.51253,21.90953 -35.52,29.25 9.45364,33.8477 46.19093,54.7399 80.21159,50.00857 27.66291,-2.60619 51.70054,-23.13119 59.98212,-49.42911 9.54932,-27.97797 5.37404,-59.00232 -2.11371,-86.58946 14.90753,29.18148 24.30114,64.48683 13.23012,96.5932 -14.58852,44.25055 -70.21042,66.03733 -112.24858,48.29934 -23.92089,-9.10077 -40.53073,-32.4738 -43.24713,-57.61461 -36.69189,13.33453 -27.33739,2.22825 -1.05441,-6.88793 1.03161,-8.42991 -0.002,-18.65432 2.67761,-26.57789 z"
       id="path226"
       sodipodi:nodetypes="ccccccccccccccccc" />
  </g>
</svg>
